<?xml version="1.0" encoding="UTF-8"?><svg id="Layer_2" xmlns="http://www.w3.org/2000/svg" viewBox="0 0 174.61 32.06"><defs><style>.cls-1{fill:#8ed433;}.cls-2{fill:#9de52c;}.cls-3{fill:#ccd3c1;}</style></defs><g id="Layer_1-2"><path class="cls-1" d="M49.97,14.23v-1.34h2.06v1.3c0,.83.32,1.14,1.18,1.14h3.95c.84,0,1.16-.31,1.16-1.14v-2.48c0-.83-.32-1.14-1.16-1.14h-3.87v-1.78h3.7c.84,0,1.16-.31,1.16-1.12v-2.08c0-.83-.32-1.14-1.16-1.14h-3.61c-.86,0-1.18.31-1.18,1.14v1.3h-2.06v-1.34c0-1.96.97-2.89,3.01-2.89h4.06c2.04,0,3.01.93,3.01,2.89v1.96c0,1.14-.49,1.8-1.4,2.19,1.07.33,1.57,1.05,1.57,2.19v2.33c0,1.96-.97,2.89-3.01,2.89h-4.4c-2.04,0-3.01-.93-3.01-2.89Z"/><path class="cls-1" d="M68.79,2.67h7.48c2.04,0,3.01.93,3.01,2.89v1.98c0,1.14-.52,1.82-1.4,2.19,1.05.35,1.57,1.07,1.57,2.21v2.29c0,1.96-.97,2.89-3.01,2.89h-7.65V2.67ZM76.03,8.84c.86,0,1.18-.31,1.18-1.11v-2.13c0-.83-.32-1.14-1.18-1.14h-5.18v4.38h5.18ZM76.2,15.33c.86,0,1.18-.31,1.18-1.14v-2.46c0-.83-.32-1.14-1.18-1.14h-5.35v4.73h5.35Z"/><path class="cls-1" d="M82.66,2.67h7.54c2.04,0,3.01.93,3.01,2.89v2.97c0,1.82-.84,2.75-2.6,2.87l3.07,5.72h-2.26l-3.07-5.68h-3.63v5.68h-2.06V2.67ZM89.97,9.65c.86,0,1.18-.31,1.18-1.11v-2.93c0-.83-.32-1.14-1.18-1.14h-5.24v5.18h5.24Z"/><path class="cls-1" d="M96.34,14.23V5.56c0-1.96.97-2.89,3.01-2.89h5.01c2.04,0,3.01.93,3.01,2.89v8.67c0,1.96-.97,2.89-3.01,2.89h-5.01c-2.04,0-3.01-.93-3.01-2.89ZM99.56,15.31h4.55c.86,0,1.18-.31,1.18-1.14V5.62c0-.83-.32-1.14-1.18-1.14h-4.55c-.84,0-1.16.31-1.16,1.14v8.55c0,.83.32,1.14,1.16,1.14Z"/><path class="cls-1" d="M113.72,4.47h-4.43v-1.8h10.94v1.8h-4.45v12.66h-2.06V4.47Z"/><path class="cls-1" d="M122.8,2.67h2.06v6.15h6.92V2.67h2.06v14.45h-2.06v-6.48h-6.92v6.48h-2.06V2.67Z"/><path class="cls-1" d="M137.71,2.67h9.73v1.82h-7.67v4.34h6.38v1.82h-6.38v4.67h7.67v1.82h-9.73V2.67Z"/><path class="cls-1" d="M150.49,2.67h7.54c2.04,0,3.01.93,3.01,2.89v2.97c0,1.82-.84,2.75-2.6,2.87l3.07,5.72h-2.26l-3.07-5.68h-3.63v5.68h-2.06V2.67ZM157.79,9.65c.86,0,1.18-.31,1.18-1.11v-2.93c0-.83-.32-1.14-1.18-1.14h-5.24v5.18h5.24Z"/><path class="cls-1" d="M164,14.23v-1.59h2.02v1.61c0,.81.32,1.11,1.18,1.11h4.17c.86,0,1.18-.31,1.18-1.11v-1.73c0-.89-.39-1.16-1.29-1.36l-4.12-.89c-1.76-.37-3.09-.89-3.09-2.95v-1.75c0-1.96.97-2.89,3.01-2.89h4.32c2.04,0,3.01.93,3.01,2.89v1.42h-2.04v-1.45c0-.81-.32-1.11-1.16-1.11h-3.91c-.84,0-1.16.31-1.16,1.11v1.51c0,.89.39,1.16,1.27,1.34l4.15.91c1.74.37,3.09.89,3.09,2.95v1.98c0,1.96-.97,2.89-3.01,2.89h-4.6c-2.04,0-3.01-.93-3.01-2.89Z"/><path class="cls-3" d="M49.64,28.54v-4.52c0-1.02.5-1.51,1.57-1.51h2.48c1.06,0,1.57.49,1.57,1.51v4.52c0,1.02-.5,1.51-1.57,1.51h-2.48c-1.06,0-1.57-.48-1.57-1.51ZM51.25,29.34h2.39c.58,0,.81-.22.81-.78v-4.57c0-.56-.22-.78-.81-.78h-2.39c-.58,0-.81.22-.81.78v4.57c0,.56.22.78.81.78Z"/><path class="cls-3" d="M57.34,28.59v-3.71h-.9v-.65h.9v-1.4h.76v1.4h1.51v.65h-1.51v3.75c0,.54.22.75.78.75h.73v.67h-.75c-1.03,0-1.52-.47-1.52-1.46Z"/><path class="cls-3" d="M61.07,28.59v-3.71h-.9v-.65h.9v-1.4h.76v1.4h1.51v.65h-1.51v3.75c0,.54.22.75.78.75h.73v.67h-.75c-1.03,0-1.52-.47-1.52-1.46Z"/><path class="cls-3" d="M64.28,28.37c0-1.21.49-1.54,1.52-1.64.55-.05,1.41-.12,2.4-.16v-.94c0-.54-.22-.75-.78-.75h-1.39c-.56,0-.78.22-.78.75v.16h-.76v-.1c0-.99.49-1.47,1.52-1.47h1.43c1.03,0,1.52.47,1.52,1.47v4.35h-.76v-.8c-.5.57-1.06.84-2.16.84-1.27,0-1.76-.52-1.76-1.72ZM66.05,29.45c1,0,1.49-.25,2.15-.7v-1.67l-2.37.26c-.56.06-.78.22-.78,1.03s.22,1.08,1.01,1.08Z"/><path class="cls-3" d="M69.91,24.23h.78l1.3,5.07,1.51-5.07h.74l1.51,5.07,1.3-5.07h.76l-1.65,5.82h-.84l-1.46-4.85-1.46,4.85h-.86l-1.65-5.82Z"/><path class="cls-3" d="M78.6,28.37c0-1.21.49-1.54,1.52-1.64.55-.05,1.41-.12,2.4-.16v-.94c0-.54-.22-.75-.78-.75h-1.39c-.56,0-.78.22-.78.75v.16h-.76v-.1c0-.99.49-1.47,1.52-1.47h1.43c1.03,0,1.52.47,1.52,1.47v4.35h-.76v-.8c-.5.57-1.06.84-2.16.84-1.27,0-1.76-.52-1.76-1.72ZM80.37,29.45c1,0,1.49-.25,2.15-.7v-1.67l-2.37.26c-.56.06-.78.22-.78,1.03s.22,1.08,1.01,1.08Z"/><path class="cls-3" d="M87.87,22.51h.81v6.83h3.88v.71h-4.68v-7.54Z"/><path class="cls-3" d="M93.55,28.37c0-1.21.49-1.54,1.52-1.64.55-.05,1.41-.12,2.4-.16v-.94c0-.54-.22-.75-.78-.75h-1.39c-.56,0-.78.22-.78.75v.16h-.76v-.1c0-.99.49-1.47,1.52-1.47h1.43c1.03,0,1.52.47,1.52,1.47v4.35h-.76v-.8c-.5.57-1.06.84-2.16.84-1.27,0-1.76-.52-1.76-1.72ZM95.32,29.45c1,0,1.49-.25,2.15-.7v-1.67l-2.37.26c-.56.06-.78.22-.78,1.03s.22,1.08,1.01,1.08Z"/><path class="cls-3" d="M99.92,24.23h.76v.79c.59-.49,1.06-.84,2.13-.84,1.23,0,1.72.47,1.72,1.46v4.41h-.76v-4.45c0-.54-.21-.75-.97-.75-.96,0-1.46.25-2.12.7v4.5h-.76v-5.82Z"/><path class="cls-3" d="M106.1,28.63v-2.97c0-.99.49-1.46,1.81-1.46,1.15,0,1.62.36,2.22.84v-2.84h.76v7.86h-.76v-.8c-.59.48-1.06.84-2.22.84-1.32,0-1.81-.47-1.81-1.46ZM107.92,29.43c1.05,0,1.55-.25,2.21-.7v-3.17c-.66-.45-1.15-.7-2.21-.7-.84,0-1.06.22-1.06.75v3.06c0,.54.22.75,1.06.75Z"/><path class="cls-3" d="M112.35,28.37v-.08h.74v.12c0,.75.22.97.78.97h1.52c.56,0,.78-.22.78-1.01,0-.68-.22-.79-.69-.86l-1.76-.28c-.87-.14-1.3-.49-1.3-1.39,0-1.13.49-1.61,1.52-1.61h1.32c1.03,0,1.52.47,1.52,1.57v.09h-.74v-.13c0-.65-.22-.86-.78-.86h-1.3c-.56,0-.78.22-.78.91,0,.58.22.69.69.76l1.76.28c.87.14,1.3.48,1.3,1.49,0,1.24-.49,1.71-1.52,1.71h-1.55c-1.03,0-1.52-.47-1.52-1.68Z"/><path class="cls-3" d="M118.27,28.59v-2.89c0-.99.49-1.47,1.52-1.47h1.52c1.03,0,1.52.47,1.52,1.47v.39h-.76v-.43c0-.54-.22-.75-.78-.75h-1.48c-.56,0-.78.22-.78.75v2.97c0,.54.22.75.78.75h1.48c.56,0,.78-.22.78-.75v-.43h.76v.39c0,.99-.49,1.46-1.52,1.46h-1.52c-1.03,0-1.52-.47-1.52-1.46Z"/><path class="cls-3" d="M124.08,28.37c0-1.21.49-1.54,1.52-1.64.55-.05,1.41-.12,2.4-.16v-.94c0-.54-.22-.75-.78-.75h-1.39c-.56,0-.78.22-.78.75v.16h-.76v-.1c0-.99.49-1.47,1.52-1.47h1.43c1.03,0,1.52.47,1.52,1.47v4.35h-.76v-.8c-.5.57-1.06.84-2.16.84-1.27,0-1.76-.52-1.76-1.72ZM125.85,29.45c1,0,1.49-.25,2.15-.7v-1.67l-2.38.26c-.56.06-.78.22-.78,1.03s.22,1.08,1.01,1.08Z"/><path class="cls-3" d="M130.46,24.23h.76v.8c.59-.49,1.06-.84,2.22-.84,1.32,0,1.81.47,1.81,1.46v2.97c0,.99-.49,1.46-1.81,1.46-1.15,0-1.62-.36-2.22-.84v2.52h-.76v-7.54ZM133.43,29.43c.84,0,1.06-.21,1.06-.75v-3.06c0-.54-.22-.75-1.06-.75-1.05,0-1.55.25-2.21.7v3.17c.66.45,1.15.7,2.21.7Z"/><path class="cls-3" d="M136.88,22.4h.87v.95h-.87v-.95ZM136.94,24.23h.76v5.82h-.76v-5.82Z"/><path class="cls-3" d="M139.51,24.23h.76v.79c.59-.49,1.06-.84,2.13-.84,1.23,0,1.73.47,1.73,1.46v4.41h-.76v-4.45c0-.54-.21-.75-.97-.75-.96,0-1.46.25-2.12.7v4.5h-.76v-5.82Z"/><path class="cls-3" d="M146.34,31.13h2.6c.56,0,.78-.22.78-.75v-1.27c-.59.49-1.06.84-2.22.84-1.32,0-1.81-.47-1.81-1.47v-2.82c0-.99.49-1.46,1.81-1.46,1.15,0,1.62.36,2.22.84v-.8h.76v6.08c0,.99-.49,1.46-1.52,1.46h-2.62v-.65ZM147.51,29.28c1.05,0,1.55-.25,2.21-.7v-3.02c-.66-.45-1.15-.7-2.21-.7-.84,0-1.06.22-1.06.75v2.91c0,.54.22.75,1.06.75Z"/><path class="cls-2" d="M21.08,28.71h1.45s4.05-4.37,4.05-4.37v-4.26s-.04-1.98-.04-1.98l-4.09-3.59h-9.04s-1.87,2.47-1.87,2.47l-4.4-.05,9.78-12.6c.28-.63-.13-1.6-.88-1.6l-8.9-.04-3.3-.02L.18,0h23.59c.12,0,.29.11.33.19s.01.26-.03.39l-8,10.5,8.41.02,5.94,5.37v9s-5.88,6.61-5.88,6.61H2.67s11.68-15.14,11.68-15.14l4.42.05-8.71,11.59-.04.1s.06.03.1.03h10.97Z"/><polygon class="cls-2" points="3.63 20.35 3.61 21.53 0 26.15 0 2.24 3.66 4.88 3.65 14.23 3.63 20.35"/></g></svg>